<?xml version="1.0" encoding="UTF-8" standalone="no"?>
<svg
   viewBox="0 0 1492.9 1257.3"
   version="1.1"
   id="svg434"
   sodipodi:docname="devina-SVG-1741028002.svg"
   inkscape:version="1.4 (e7c3feb100, 2024-10-09)"
   width="1492.9"
   height="1257.3"
   xmlns:inkscape="http://www.inkscape.org/namespaces/inkscape"
   xmlns:sodipodi="http://sodipodi.sourceforge.net/DTD/sodipodi-0.dtd"
   xmlns="http://www.w3.org/2000/svg"
   xmlns:svg="http://www.w3.org/2000/svg">
  <sodipodi:namedview
     id="namedview434"
     pagecolor="#ffffff"
     bordercolor="#000000"
     borderopacity="0.25"
     inkscape:showpageshadow="2"
     inkscape:pageopacity="0.0"
     inkscape:pagecheckerboard="0"
     inkscape:deskcolor="#d1d1d1"
     inkscape:zoom="0.43073171"
     inkscape:cx="437.6274"
     inkscape:cy="744.08267"
     inkscape:window-width="1803"
     inkscape:window-height="1133"
     inkscape:window-x="0"
     inkscape:window-y="0"
     inkscape:window-maximized="1"
     inkscape:current-layer="svg434" />
  <defs
     id="defs413">
    <clipPath
       id="e">
      <path
         d="m 1153,1435 h 218 v 208 h -218 z"
         id="path1" />
    </clipPath>
    <clipPath
       id="f">
      <use
         href="#a"
         id="use1" />
    </clipPath>
    <clipPath
       id="g">
      <use
         href="#a"
         id="use2" />
    </clipPath>
    <clipPath
       id="i">
      <path
         d="m 1138,1429 h 248 v 225 h -248 z"
         id="path2" />
    </clipPath>
    <clipPath
       id="j">
      <use
         href="#b"
         id="use3" />
    </clipPath>
    <clipPath
       id="k">
      <use
         href="#b"
         id="use4" />
    </clipPath>
    <clipPath
       id="m">
      <path
         d="m 681,1435 h 218 v 208 H 681 Z"
         id="path4" />
    </clipPath>
    <clipPath
       id="n">
      <use
         href="#c"
         id="use5" />
    </clipPath>
    <clipPath
       id="o">
      <use
         href="#c"
         id="use6" />
    </clipPath>
    <clipPath
       id="q">
      <path
         d="m 667,1429 h 247 v 225 H 667 Z"
         id="path6" />
    </clipPath>
    <clipPath
       id="r">
      <use
         href="#d"
         id="use7" />
    </clipPath>
    <clipPath
       id="s">
      <use
         href="#d"
         id="use8" />
    </clipPath>
    <linearGradient
       id="h"
       x1="0.2"
       x2="0.60000002"
       gradientTransform="matrix(0,575.38,-575.38,0,1262.3,1316.3)"
       gradientUnits="userSpaceOnUse">
      <stop
         offset="0"
         stop-color="#ed2724"
         id="stop8" />
      <stop
         offset="0"
         stop-color="#ee2724"
         id="stop9" />
      <stop
         offset="0"
         stop-color="#ee2824"
         id="stop10" />
      <stop
         offset="0"
         stop-color="#ee2924"
         id="stop11" />
      <stop
         offset=".1"
         stop-color="#ee2924"
         id="stop12" />
      <stop
         offset=".1"
         stop-color="#ee2a24"
         id="stop13" />
      <stop
         offset=".1"
         stop-color="#ee2b24"
         id="stop14" />
      <stop
         offset=".1"
         stop-color="#ee2b24"
         id="stop15" />
      <stop
         offset=".1"
         stop-color="#ee2c24"
         id="stop16" />
      <stop
         offset=".1"
         stop-color="#ee2d24"
         id="stop17" />
      <stop
         offset=".2"
         stop-color="#ee2e24"
         id="stop18" />
      <stop
         offset=".2"
         stop-color="#ee2f24"
         id="stop19" />
      <stop
         offset=".2"
         stop-color="#ee2f24"
         id="stop20" />
      <stop
         offset=".2"
         stop-color="#ee3024"
         id="stop21" />
      <stop
         offset=".2"
         stop-color="#ee3124"
         id="stop22" />
      <stop
         offset=".2"
         stop-color="#ee3224"
         id="stop23" />
      <stop
         offset=".2"
         stop-color="#ee3224"
         id="stop24" />
      <stop
         offset=".3"
         stop-color="#ef3324"
         id="stop25" />
      <stop
         offset=".3"
         stop-color="#ef3424"
         id="stop26" />
      <stop
         offset=".3"
         stop-color="#ef3424"
         id="stop27" />
      <stop
         offset=".3"
         stop-color="#ef3524"
         id="stop28" />
      <stop
         offset=".3"
         stop-color="#ef3524"
         id="stop29" />
      <stop
         offset=".3"
         stop-color="#ef3625"
         id="stop30" />
      <stop
         offset=".3"
         stop-color="#ef3625"
         id="stop31" />
      <stop
         offset=".3"
         stop-color="#ef3725"
         id="stop32" />
      <stop
         offset=".3"
         stop-color="#ef3825"
         id="stop33" />
      <stop
         offset=".3"
         stop-color="#ef3825"
         id="stop34" />
      <stop
         offset=".4"
         stop-color="#ef3925"
         id="stop35" />
      <stop
         offset=".4"
         stop-color="#ee3a25"
         id="stop36" />
      <stop
         offset=".4"
         stop-color="#ee3a25"
         id="stop37" />
      <stop
         offset=".4"
         stop-color="#ee3b25"
         id="stop38" />
      <stop
         offset=".4"
         stop-color="#ee3b25"
         id="stop39" />
      <stop
         offset=".4"
         stop-color="#ef3c25"
         id="stop40" />
      <stop
         offset=".4"
         stop-color="#ef3c26"
         id="stop41" />
      <stop
         offset=".4"
         stop-color="#ef3d26"
         id="stop42" />
      <stop
         offset=".4"
         stop-color="#ef3e26"
         id="stop43" />
      <stop
         offset=".4"
         stop-color="#ef3e26"
         id="stop44" />
      <stop
         offset=".4"
         stop-color="#ef3f26"
         id="stop45" />
      <stop
         offset=".5"
         stop-color="#ef3f26"
         id="stop46" />
      <stop
         offset=".5"
         stop-color="#ef4026"
         id="stop47" />
      <stop
         offset=".5"
         stop-color="#ef4026"
         id="stop48" />
      <stop
         offset=".5"
         stop-color="#ef4126"
         id="stop49" />
      <stop
         offset=".5"
         stop-color="#ef4226"
         id="stop50" />
      <stop
         offset=".5"
         stop-color="#ef4226"
         id="stop51" />
      <stop
         offset=".5"
         stop-color="#ef4326"
         id="stop52" />
      <stop
         offset=".5"
         stop-color="#ef4326"
         id="stop53" />
      <stop
         offset=".5"
         stop-color="#ef4426"
         id="stop54" />
      <stop
         offset=".5"
         stop-color="#ef4526"
         id="stop55" />
      <stop
         offset=".5"
         stop-color="#ef4526"
         id="stop56" />
      <stop
         offset=".5"
         stop-color="#ef4627"
         id="stop57" />
      <stop
         offset=".5"
         stop-color="#ef4627"
         id="stop58" />
      <stop
         offset=".6"
         stop-color="#ef4727"
         id="stop59" />
      <stop
         offset=".6"
         stop-color="#ef4827"
         id="stop60" />
      <stop
         offset=".6"
         stop-color="#f04827"
         id="stop61" />
      <stop
         offset=".6"
         stop-color="#f04927"
         id="stop62" />
      <stop
         offset=".6"
         stop-color="#f04927"
         id="stop63" />
      <stop
         offset=".6"
         stop-color="#f04a27"
         id="stop64" />
      <stop
         offset=".6"
         stop-color="#f04a27"
         id="stop65" />
      <stop
         offset=".6"
         stop-color="#f04b27"
         id="stop66" />
      <stop
         offset=".6"
         stop-color="#f04c27"
         id="stop67" />
      <stop
         offset=".6"
         stop-color="#f04c27"
         id="stop68" />
      <stop
         offset=".6"
         stop-color="#f04d27"
         id="stop69" />
      <stop
         offset=".6"
         stop-color="#f04e28"
         id="stop70" />
      <stop
         offset=".7"
         stop-color="#f04e28"
         id="stop71" />
      <stop
         offset=".7"
         stop-color="#f04f28"
         id="stop72" />
      <stop
         offset=".7"
         stop-color="#f04f28"
         id="stop73" />
      <stop
         offset=".7"
         stop-color="#f05028"
         id="stop74" />
      <stop
         offset=".7"
         stop-color="#f05128"
         id="stop75" />
      <stop
         offset=".7"
         stop-color="#f05128"
         id="stop76" />
      <stop
         offset=".7"
         stop-color="#f05228"
         id="stop77" />
      <stop
         offset=".7"
         stop-color="#f05228"
         id="stop78" />
      <stop
         offset=".7"
         stop-color="#f05328"
         id="stop79" />
      <stop
         offset=".7"
         stop-color="#f15428"
         id="stop80" />
      <stop
         offset=".7"
         stop-color="#f15528"
         id="stop81" />
      <stop
         offset=".7"
         stop-color="#f15528"
         id="stop82" />
      <stop
         offset=".8"
         stop-color="#f15628"
         id="stop83" />
      <stop
         offset=".8"
         stop-color="#f15729"
         id="stop84" />
      <stop
         offset=".8"
         stop-color="#f15729"
         id="stop85" />
      <stop
         offset=".8"
         stop-color="#f15829"
         id="stop86" />
      <stop
         offset=".8"
         stop-color="#f15929"
         id="stop87" />
      <stop
         offset=".8"
         stop-color="#f15929"
         id="stop88" />
      <stop
         offset=".8"
         stop-color="#f15a2a"
         id="stop89" />
      <stop
         offset=".8"
         stop-color="#f15b2a"
         id="stop90" />
      <stop
         offset=".8"
         stop-color="#f15b2a"
         id="stop91" />
      <stop
         offset=".8"
         stop-color="#f15c2a"
         id="stop92" />
      <stop
         offset=".8"
         stop-color="#f15c2a"
         id="stop93" />
      <stop
         offset=".8"
         stop-color="#f15d2a"
         id="stop94" />
      <stop
         offset=".8"
         stop-color="#f15e2a"
         id="stop95" />
      <stop
         offset=".9"
         stop-color="#f15e2a"
         id="stop96" />
      <stop
         offset=".9"
         stop-color="#f15f2a"
         id="stop97" />
      <stop
         offset=".9"
         stop-color="#f2602a"
         id="stop98" />
      <stop
         offset=".9"
         stop-color="#f2612a"
         id="stop99" />
      <stop
         offset=".9"
         stop-color="#f2612b"
         id="stop100" />
      <stop
         offset=".9"
         stop-color="#f2622b"
         id="stop101" />
      <stop
         offset=".9"
         stop-color="#f2632b"
         id="stop102" />
      <stop
         offset=".9"
         stop-color="#f2632b"
         id="stop103" />
      <stop
         offset=".9"
         stop-color="#f2642b"
         id="stop104" />
      <stop
         offset=".9"
         stop-color="#f2652c"
         id="stop105" />
      <stop
         offset=".9"
         stop-color="#f2662c"
         id="stop106" />
      <stop
         offset=".9"
         stop-color="#f2672c"
         id="stop107" />
      <stop
         offset=".9"
         stop-color="#f2672c"
         id="stop108" />
      <stop
         offset="1"
         stop-color="#f2682c"
         id="stop109" />
      <stop
         offset="1"
         stop-color="#f2682c"
         id="stop110" />
      <stop
         offset="1"
         stop-color="#f2692c"
         id="stop111" />
      <stop
         offset="1"
         stop-color="#f26a2c"
         id="stop112" />
      <stop
         offset="1"
         stop-color="#f26b2d"
         id="stop113" />
      <stop
         offset="1"
         stop-color="#f26b2d"
         id="stop114" />
      <stop
         offset="1"
         stop-color="#f36c2d"
         id="stop115" />
    </linearGradient>
    <linearGradient
       id="l"
       x1="0.1"
       x2="0.69999999"
       gradientTransform="matrix(0,377.42,-377.42,0,1262.3,1376.7)"
       gradientUnits="userSpaceOnUse">
      <stop
         offset="0"
         stop-color="#ec1a2d"
         id="stop116" />
      <stop
         offset=".3"
         stop-color="#ec1a2d"
         id="stop117" />
      <stop
         offset=".3"
         stop-color="#ec1a2d"
         id="stop118" />
      <stop
         offset=".3"
         stop-color="#ec1a2d"
         id="stop119" />
      <stop
         offset=".4"
         stop-color="#ed1a2d"
         id="stop120" />
      <stop
         offset=".4"
         stop-color="#ed1b2d"
         id="stop121" />
      <stop
         offset=".4"
         stop-color="#ed1c2d"
         id="stop122" />
      <stop
         offset=".4"
         stop-color="#ed1c2d"
         id="stop123" />
      <stop
         offset=".5"
         stop-color="#ed1d2d"
         id="stop124" />
      <stop
         offset=".5"
         stop-color="#ed1e2d"
         id="stop125" />
      <stop
         offset=".5"
         stop-color="#ed1e2d"
         id="stop126" />
      <stop
         offset=".5"
         stop-color="#ed1f2d"
         id="stop127" />
      <stop
         offset=".5"
         stop-color="#ed202d"
         id="stop128" />
      <stop
         offset=".5"
         stop-color="#ed202d"
         id="stop129" />
      <stop
         offset=".5"
         stop-color="#ed212c"
         id="stop130" />
      <stop
         offset=".5"
         stop-color="#ed222c"
         id="stop131" />
      <stop
         offset=".5"
         stop-color="#ed222c"
         id="stop132" />
      <stop
         offset=".6"
         stop-color="#ed232c"
         id="stop133" />
      <stop
         offset=".6"
         stop-color="#ed232c"
         id="stop134" />
      <stop
         offset=".6"
         stop-color="#ed242c"
         id="stop135" />
      <stop
         offset=".6"
         stop-color="#ed252c"
         id="stop136" />
      <stop
         offset=".6"
         stop-color="#ed252c"
         id="stop137" />
      <stop
         offset=".6"
         stop-color="#ed262c"
         id="stop138" />
      <stop
         offset=".6"
         stop-color="#ed272c"
         id="stop139" />
      <stop
         offset=".6"
         stop-color="#ed282c"
         id="stop140" />
      <stop
         offset=".6"
         stop-color="#ed282c"
         id="stop141" />
      <stop
         offset=".6"
         stop-color="#ed292c"
         id="stop142" />
      <stop
         offset=".6"
         stop-color="#ed292c"
         id="stop143" />
      <stop
         offset=".6"
         stop-color="#ed2a2c"
         id="stop144" />
      <stop
         offset=".7"
         stop-color="#ed2a2c"
         id="stop145" />
      <stop
         offset=".7"
         stop-color="#ed2b2b"
         id="stop146" />
      <stop
         offset=".7"
         stop-color="#ed2c2b"
         id="stop147" />
      <stop
         offset=".7"
         stop-color="#ed2d2b"
         id="stop148" />
      <stop
         offset=".7"
         stop-color="#ed2d2b"
         id="stop149" />
      <stop
         offset=".7"
         stop-color="#ed2e2b"
         id="stop150" />
      <stop
         offset=".7"
         stop-color="#ed2f2b"
         id="stop151" />
      <stop
         offset=".7"
         stop-color="#ee302b"
         id="stop152" />
      <stop
         offset=".7"
         stop-color="#ee302b"
         id="stop153" />
      <stop
         offset=".7"
         stop-color="#ee312b"
         id="stop154" />
      <stop
         offset=".7"
         stop-color="#ee322a"
         id="stop155" />
      <stop
         offset=".7"
         stop-color="#ee332a"
         id="stop156" />
      <stop
         offset=".8"
         stop-color="#ee332a"
         id="stop157" />
      <stop
         offset=".8"
         stop-color="#ee342a"
         id="stop158" />
      <stop
         offset=".8"
         stop-color="#ee352a"
         id="stop159" />
      <stop
         offset=".8"
         stop-color="#ee352a"
         id="stop160" />
      <stop
         offset=".8"
         stop-color="#ee362a"
         id="stop161" />
      <stop
         offset=".8"
         stop-color="#ee372a"
         id="stop162" />
      <stop
         offset=".8"
         stop-color="#ee372a"
         id="stop163" />
      <stop
         offset=".8"
         stop-color="#ee382a"
         id="stop164" />
      <stop
         offset=".8"
         stop-color="#ee382a"
         id="stop165" />
      <stop
         offset=".8"
         stop-color="#ee392a"
         id="stop166" />
      <stop
         offset=".8"
         stop-color="#ee392a"
         id="stop167" />
      <stop
         offset=".8"
         stop-color="#ee3a2a"
         id="stop168" />
      <stop
         offset=".8"
         stop-color="#ee3b2a"
         id="stop169" />
      <stop
         offset=".8"
         stop-color="#ef3b29"
         id="stop170" />
      <stop
         offset=".8"
         stop-color="#ef3c29"
         id="stop171" />
      <stop
         offset=".8"
         stop-color="#ef3d29"
         id="stop172" />
      <stop
         offset=".8"
         stop-color="#ef3d29"
         id="stop173" />
      <stop
         offset=".8"
         stop-color="#ef3e29"
         id="stop174" />
      <stop
         offset=".8"
         stop-color="#ef3f29"
         id="stop175" />
      <stop
         offset=".9"
         stop-color="#ef3f29"
         id="stop176" />
      <stop
         offset=".9"
         stop-color="#ef4029"
         id="stop177" />
      <stop
         offset=".9"
         stop-color="#ef4029"
         id="stop178" />
      <stop
         offset=".9"
         stop-color="#ef4129"
         id="stop179" />
      <stop
         offset=".9"
         stop-color="#ef4129"
         id="stop180" />
      <stop
         offset=".9"
         stop-color="#ef4229"
         id="stop181" />
      <stop
         offset=".9"
         stop-color="#ef4229"
         id="stop182" />
      <stop
         offset=".9"
         stop-color="#ee4329"
         id="stop183" />
      <stop
         offset=".9"
         stop-color="#ee4429"
         id="stop184" />
      <stop
         offset=".9"
         stop-color="#ee4429"
         id="stop185" />
      <stop
         offset=".9"
         stop-color="#ee4529"
         id="stop186" />
      <stop
         offset=".9"
         stop-color="#ef4529"
         id="stop187" />
      <stop
         offset=".9"
         stop-color="#ef4629"
         id="stop188" />
      <stop
         offset=".9"
         stop-color="#ef4628"
         id="stop189" />
      <stop
         offset=".9"
         stop-color="#ef4728"
         id="stop190" />
      <stop
         offset=".9"
         stop-color="#ef4828"
         id="stop191" />
      <stop
         offset=".9"
         stop-color="#ef4828"
         id="stop192" />
      <stop
         offset=".9"
         stop-color="#ef4828"
         id="stop193" />
      <stop
         offset=".9"
         stop-color="#ef4928"
         id="stop194" />
      <stop
         offset=".9"
         stop-color="#ef4a28"
         id="stop195" />
      <stop
         offset=".9"
         stop-color="#ef4b28"
         id="stop196" />
      <stop
         offset=".9"
         stop-color="#ef4b28"
         id="stop197" />
      <stop
         offset="1"
         stop-color="#ef4c28"
         id="stop198" />
      <stop
         offset="1"
         stop-color="#ef4c28"
         id="stop199" />
      <stop
         offset="1"
         stop-color="#ef4d28"
         id="stop200" />
      <stop
         offset="1"
         stop-color="#ef4d28"
         id="stop201" />
      <stop
         offset="1"
         stop-color="#ef4e28"
         id="stop202" />
      <stop
         offset="1"
         stop-color="#ef4e28"
         id="stop203" />
      <stop
         offset="1"
         stop-color="#ef4f28"
         id="stop204" />
      <stop
         offset="1"
         stop-color="#ef5028"
         id="stop205" />
      <stop
         offset="1"
         stop-color="#ef5027"
         id="stop206" />
      <stop
         offset="1"
         stop-color="#ef5127"
         id="stop207" />
      <stop
         offset="1"
         stop-color="#ef5127"
         id="stop208" />
      <stop
         offset="1"
         stop-color="#f05227"
         id="stop209" />
      <stop
         offset="1"
         stop-color="#f05227"
         id="stop210" />
    </linearGradient>
    <linearGradient
       id="p"
       x1="0.2"
       x2="0.60000002"
       gradientTransform="matrix(0,575.38,-575.38,0,790.4,1316)"
       gradientUnits="userSpaceOnUse">
      <stop
         offset="0"
         stop-color="#ed2724"
         id="stop211" />
      <stop
         offset="0"
         stop-color="#ee2724"
         id="stop212" />
      <stop
         offset="0"
         stop-color="#ee2824"
         id="stop213" />
      <stop
         offset="0"
         stop-color="#ee2924"
         id="stop214" />
      <stop
         offset=".1"
         stop-color="#ee2924"
         id="stop215" />
      <stop
         offset=".1"
         stop-color="#ee2a24"
         id="stop216" />
      <stop
         offset=".1"
         stop-color="#ee2b24"
         id="stop217" />
      <stop
         offset=".1"
         stop-color="#ee2b24"
         id="stop218" />
      <stop
         offset=".1"
         stop-color="#ee2c24"
         id="stop219" />
      <stop
         offset=".1"
         stop-color="#ee2d24"
         id="stop220" />
      <stop
         offset=".2"
         stop-color="#ee2e24"
         id="stop221" />
      <stop
         offset=".2"
         stop-color="#ee2f24"
         id="stop222" />
      <stop
         offset=".2"
         stop-color="#ee2f24"
         id="stop223" />
      <stop
         offset=".2"
         stop-color="#ee3024"
         id="stop224" />
      <stop
         offset=".2"
         stop-color="#ee3124"
         id="stop225" />
      <stop
         offset=".2"
         stop-color="#ee3224"
         id="stop226" />
      <stop
         offset=".2"
         stop-color="#ee3224"
         id="stop227" />
      <stop
         offset=".3"
         stop-color="#ef3324"
         id="stop228" />
      <stop
         offset=".3"
         stop-color="#ef3424"
         id="stop229" />
      <stop
         offset=".3"
         stop-color="#ef3424"
         id="stop230" />
      <stop
         offset=".3"
         stop-color="#ef3524"
         id="stop231" />
      <stop
         offset=".3"
         stop-color="#ef3524"
         id="stop232" />
      <stop
         offset=".3"
         stop-color="#ef3625"
         id="stop233" />
      <stop
         offset=".3"
         stop-color="#ef3625"
         id="stop234" />
      <stop
         offset=".3"
         stop-color="#ef3725"
         id="stop235" />
      <stop
         offset=".3"
         stop-color="#ef3825"
         id="stop236" />
      <stop
         offset=".3"
         stop-color="#ef3825"
         id="stop237" />
      <stop
         offset=".4"
         stop-color="#ef3925"
         id="stop238" />
      <stop
         offset=".4"
         stop-color="#ee3a25"
         id="stop239" />
      <stop
         offset=".4"
         stop-color="#ee3a25"
         id="stop240" />
      <stop
         offset=".4"
         stop-color="#ee3b25"
         id="stop241" />
      <stop
         offset=".4"
         stop-color="#ee3b25"
         id="stop242" />
      <stop
         offset=".4"
         stop-color="#ef3c25"
         id="stop243" />
      <stop
         offset=".4"
         stop-color="#ef3c26"
         id="stop244" />
      <stop
         offset=".4"
         stop-color="#ef3d26"
         id="stop245" />
      <stop
         offset=".4"
         stop-color="#ef3e26"
         id="stop246" />
      <stop
         offset=".4"
         stop-color="#ef3e26"
         id="stop247" />
      <stop
         offset=".4"
         stop-color="#ef3f26"
         id="stop248" />
      <stop
         offset=".5"
         stop-color="#ef3f26"
         id="stop249" />
      <stop
         offset=".5"
         stop-color="#ef4026"
         id="stop250" />
      <stop
         offset=".5"
         stop-color="#ef4026"
         id="stop251" />
      <stop
         offset=".5"
         stop-color="#ef4126"
         id="stop252" />
      <stop
         offset=".5"
         stop-color="#ef4226"
         id="stop253" />
      <stop
         offset=".5"
         stop-color="#ef4226"
         id="stop254" />
      <stop
         offset=".5"
         stop-color="#ef4326"
         id="stop255" />
      <stop
         offset=".5"
         stop-color="#ef4326"
         id="stop256" />
      <stop
         offset=".5"
         stop-color="#ef4426"
         id="stop257" />
      <stop
         offset=".5"
         stop-color="#ef4526"
         id="stop258" />
      <stop
         offset=".5"
         stop-color="#ef4526"
         id="stop259" />
      <stop
         offset=".5"
         stop-color="#ef4627"
         id="stop260" />
      <stop
         offset=".5"
         stop-color="#ef4627"
         id="stop261" />
      <stop
         offset=".6"
         stop-color="#ef4727"
         id="stop262" />
      <stop
         offset=".6"
         stop-color="#ef4827"
         id="stop263" />
      <stop
         offset=".6"
         stop-color="#f04827"
         id="stop264" />
      <stop
         offset=".6"
         stop-color="#f04927"
         id="stop265" />
      <stop
         offset=".6"
         stop-color="#f04927"
         id="stop266" />
      <stop
         offset=".6"
         stop-color="#f04a27"
         id="stop267" />
      <stop
         offset=".6"
         stop-color="#f04a27"
         id="stop268" />
      <stop
         offset=".6"
         stop-color="#f04b27"
         id="stop269" />
      <stop
         offset=".6"
         stop-color="#f04c27"
         id="stop270" />
      <stop
         offset=".6"
         stop-color="#f04c27"
         id="stop271" />
      <stop
         offset=".6"
         stop-color="#f04d27"
         id="stop272" />
      <stop
         offset=".6"
         stop-color="#f04e28"
         id="stop273" />
      <stop
         offset=".7"
         stop-color="#f04e28"
         id="stop274" />
      <stop
         offset=".7"
         stop-color="#f04f28"
         id="stop275" />
      <stop
         offset=".7"
         stop-color="#f04f28"
         id="stop276" />
      <stop
         offset=".7"
         stop-color="#f05028"
         id="stop277" />
      <stop
         offset=".7"
         stop-color="#f05128"
         id="stop278" />
      <stop
         offset=".7"
         stop-color="#f05128"
         id="stop279" />
      <stop
         offset=".7"
         stop-color="#f05228"
         id="stop280" />
      <stop
         offset=".7"
         stop-color="#f05228"
         id="stop281" />
      <stop
         offset=".7"
         stop-color="#f05328"
         id="stop282" />
      <stop
         offset=".7"
         stop-color="#f15428"
         id="stop283" />
      <stop
         offset=".7"
         stop-color="#f15528"
         id="stop284" />
      <stop
         offset=".7"
         stop-color="#f15528"
         id="stop285" />
      <stop
         offset=".8"
         stop-color="#f15628"
         id="stop286" />
      <stop
         offset=".8"
         stop-color="#f15729"
         id="stop287" />
      <stop
         offset=".8"
         stop-color="#f15729"
         id="stop288" />
      <stop
         offset=".8"
         stop-color="#f15829"
         id="stop289" />
      <stop
         offset=".8"
         stop-color="#f15929"
         id="stop290" />
      <stop
         offset=".8"
         stop-color="#f15929"
         id="stop291" />
      <stop
         offset=".8"
         stop-color="#f15a2a"
         id="stop292" />
      <stop
         offset=".8"
         stop-color="#f15b2a"
         id="stop293" />
      <stop
         offset=".8"
         stop-color="#f15b2a"
         id="stop294" />
      <stop
         offset=".8"
         stop-color="#f15c2a"
         id="stop295" />
      <stop
         offset=".8"
         stop-color="#f15c2a"
         id="stop296" />
      <stop
         offset=".8"
         stop-color="#f15d2a"
         id="stop297" />
      <stop
         offset=".8"
         stop-color="#f15e2a"
         id="stop298" />
      <stop
         offset=".9"
         stop-color="#f15e2a"
         id="stop299" />
      <stop
         offset=".9"
         stop-color="#f15f2a"
         id="stop300" />
      <stop
         offset=".9"
         stop-color="#f2602a"
         id="stop301" />
      <stop
         offset=".9"
         stop-color="#f2612a"
         id="stop302" />
      <stop
         offset=".9"
         stop-color="#f2612b"
         id="stop303" />
      <stop
         offset=".9"
         stop-color="#f2622b"
         id="stop304" />
      <stop
         offset=".9"
         stop-color="#f2632b"
         id="stop305" />
      <stop
         offset=".9"
         stop-color="#f2632b"
         id="stop306" />
      <stop
         offset=".9"
         stop-color="#f2642b"
         id="stop307" />
      <stop
         offset=".9"
         stop-color="#f2652c"
         id="stop308" />
      <stop
         offset=".9"
         stop-color="#f2662c"
         id="stop309" />
      <stop
         offset=".9"
         stop-color="#f2672c"
         id="stop310" />
      <stop
         offset=".9"
         stop-color="#f2672c"
         id="stop311" />
      <stop
         offset="1"
         stop-color="#f2682c"
         id="stop312" />
      <stop
         offset="1"
         stop-color="#f2682c"
         id="stop313" />
      <stop
         offset="1"
         stop-color="#f2692c"
         id="stop314" />
      <stop
         offset="1"
         stop-color="#f26a2c"
         id="stop315" />
      <stop
         offset="1"
         stop-color="#f26b2d"
         id="stop316" />
      <stop
         offset="1"
         stop-color="#f26b2d"
         id="stop317" />
      <stop
         offset="1"
         stop-color="#f36c2d"
         id="stop318" />
    </linearGradient>
    <linearGradient
       id="t"
       x1="0.1"
       x2="0.69999999"
       gradientTransform="matrix(0,377.42,-377.42,0,790.4,1376.4)"
       gradientUnits="userSpaceOnUse">
      <stop
         offset="0"
         stop-color="#ec1a2d"
         id="stop319" />
      <stop
         offset=".3"
         stop-color="#ec1a2d"
         id="stop320" />
      <stop
         offset=".3"
         stop-color="#ec1a2d"
         id="stop321" />
      <stop
         offset=".3"
         stop-color="#ec1a2d"
         id="stop322" />
      <stop
         offset=".4"
         stop-color="#ed1a2d"
         id="stop323" />
      <stop
         offset=".4"
         stop-color="#ed1b2d"
         id="stop324" />
      <stop
         offset=".4"
         stop-color="#ed1c2d"
         id="stop325" />
      <stop
         offset=".4"
         stop-color="#ed1c2d"
         id="stop326" />
      <stop
         offset=".5"
         stop-color="#ed1d2d"
         id="stop327" />
      <stop
         offset=".5"
         stop-color="#ed1e2d"
         id="stop328" />
      <stop
         offset=".5"
         stop-color="#ed1e2d"
         id="stop329" />
      <stop
         offset=".5"
         stop-color="#ed1f2d"
         id="stop330" />
      <stop
         offset=".5"
         stop-color="#ed202d"
         id="stop331" />
      <stop
         offset=".5"
         stop-color="#ed202d"
         id="stop332" />
      <stop
         offset=".5"
         stop-color="#ed212c"
         id="stop333" />
      <stop
         offset=".5"
         stop-color="#ed222c"
         id="stop334" />
      <stop
         offset=".5"
         stop-color="#ed222c"
         id="stop335" />
      <stop
         offset=".6"
         stop-color="#ed232c"
         id="stop336" />
      <stop
         offset=".6"
         stop-color="#ed232c"
         id="stop337" />
      <stop
         offset=".6"
         stop-color="#ed242c"
         id="stop338" />
      <stop
         offset=".6"
         stop-color="#ed252c"
         id="stop339" />
      <stop
         offset=".6"
         stop-color="#ed252c"
         id="stop340" />
      <stop
         offset=".6"
         stop-color="#ed262c"
         id="stop341" />
      <stop
         offset=".6"
         stop-color="#ed272c"
         id="stop342" />
      <stop
         offset=".6"
         stop-color="#ed282c"
         id="stop343" />
      <stop
         offset=".6"
         stop-color="#ed282c"
         id="stop344" />
      <stop
         offset=".6"
         stop-color="#ed292c"
         id="stop345" />
      <stop
         offset=".6"
         stop-color="#ed292c"
         id="stop346" />
      <stop
         offset=".6"
         stop-color="#ed2a2c"
         id="stop347" />
      <stop
         offset=".7"
         stop-color="#ed2a2c"
         id="stop348" />
      <stop
         offset=".7"
         stop-color="#ed2b2b"
         id="stop349" />
      <stop
         offset=".7"
         stop-color="#ed2c2b"
         id="stop350" />
      <stop
         offset=".7"
         stop-color="#ed2d2b"
         id="stop351" />
      <stop
         offset=".7"
         stop-color="#ed2d2b"
         id="stop352" />
      <stop
         offset=".7"
         stop-color="#ed2e2b"
         id="stop353" />
      <stop
         offset=".7"
         stop-color="#ed2f2b"
         id="stop354" />
      <stop
         offset=".7"
         stop-color="#ee302b"
         id="stop355" />
      <stop
         offset=".7"
         stop-color="#ee302b"
         id="stop356" />
      <stop
         offset=".7"
         stop-color="#ee312b"
         id="stop357" />
      <stop
         offset=".7"
         stop-color="#ee322a"
         id="stop358" />
      <stop
         offset=".7"
         stop-color="#ee332a"
         id="stop359" />
      <stop
         offset=".8"
         stop-color="#ee332a"
         id="stop360" />
      <stop
         offset=".8"
         stop-color="#ee342a"
         id="stop361" />
      <stop
         offset=".8"
         stop-color="#ee352a"
         id="stop362" />
      <stop
         offset=".8"
         stop-color="#ee352a"
         id="stop363" />
      <stop
         offset=".8"
         stop-color="#ee362a"
         id="stop364" />
      <stop
         offset=".8"
         stop-color="#ee372a"
         id="stop365" />
      <stop
         offset=".8"
         stop-color="#ee372a"
         id="stop366" />
      <stop
         offset=".8"
         stop-color="#ee382a"
         id="stop367" />
      <stop
         offset=".8"
         stop-color="#ee382a"
         id="stop368" />
      <stop
         offset=".8"
         stop-color="#ee392a"
         id="stop369" />
      <stop
         offset=".8"
         stop-color="#ee392a"
         id="stop370" />
      <stop
         offset=".8"
         stop-color="#ee3a2a"
         id="stop371" />
      <stop
         offset=".8"
         stop-color="#ee3b2a"
         id="stop372" />
      <stop
         offset=".8"
         stop-color="#ef3b29"
         id="stop373" />
      <stop
         offset=".8"
         stop-color="#ef3c29"
         id="stop374" />
      <stop
         offset=".8"
         stop-color="#ef3d29"
         id="stop375" />
      <stop
         offset=".8"
         stop-color="#ef3d29"
         id="stop376" />
      <stop
         offset=".8"
         stop-color="#ef3e29"
         id="stop377" />
      <stop
         offset=".8"
         stop-color="#ef3f29"
         id="stop378" />
      <stop
         offset=".9"
         stop-color="#ef3f29"
         id="stop379" />
      <stop
         offset=".9"
         stop-color="#ef4029"
         id="stop380" />
      <stop
         offset=".9"
         stop-color="#ef4029"
         id="stop381" />
      <stop
         offset=".9"
         stop-color="#ef4129"
         id="stop382" />
      <stop
         offset=".9"
         stop-color="#ef4129"
         id="stop383" />
      <stop
         offset=".9"
         stop-color="#ef4229"
         id="stop384" />
      <stop
         offset=".9"
         stop-color="#ef4229"
         id="stop385" />
      <stop
         offset=".9"
         stop-color="#ee4329"
         id="stop386" />
      <stop
         offset=".9"
         stop-color="#ee4429"
         id="stop387" />
      <stop
         offset=".9"
         stop-color="#ee4429"
         id="stop388" />
      <stop
         offset=".9"
         stop-color="#ee4529"
         id="stop389" />
      <stop
         offset=".9"
         stop-color="#ef4529"
         id="stop390" />
      <stop
         offset=".9"
         stop-color="#ef4629"
         id="stop391" />
      <stop
         offset=".9"
         stop-color="#ef4628"
         id="stop392" />
      <stop
         offset=".9"
         stop-color="#ef4728"
         id="stop393" />
      <stop
         offset=".9"
         stop-color="#ef4828"
         id="stop394" />
      <stop
         offset=".9"
         stop-color="#ef4828"
         id="stop395" />
      <stop
         offset=".9"
         stop-color="#ef4828"
         id="stop396" />
      <stop
         offset=".9"
         stop-color="#ef4928"
         id="stop397" />
      <stop
         offset=".9"
         stop-color="#ef4a28"
         id="stop398" />
      <stop
         offset=".9"
         stop-color="#ef4b28"
         id="stop399" />
      <stop
         offset=".9"
         stop-color="#ef4b28"
         id="stop400" />
      <stop
         offset="1"
         stop-color="#ef4c28"
         id="stop401" />
      <stop
         offset="1"
         stop-color="#ef4c28"
         id="stop402" />
      <stop
         offset="1"
         stop-color="#ef4d28"
         id="stop403" />
      <stop
         offset="1"
         stop-color="#ef4d28"
         id="stop404" />
      <stop
         offset="1"
         stop-color="#ef4e28"
         id="stop405" />
      <stop
         offset="1"
         stop-color="#ef4e28"
         id="stop406" />
      <stop
         offset="1"
         stop-color="#ef4f28"
         id="stop407" />
      <stop
         offset="1"
         stop-color="#ef5028"
         id="stop408" />
      <stop
         offset="1"
         stop-color="#ef5027"
         id="stop409" />
      <stop
         offset="1"
         stop-color="#ef5127"
         id="stop410" />
      <stop
         offset="1"
         stop-color="#ef5127"
         id="stop411" />
      <stop
         offset="1"
         stop-color="#f05227"
         id="stop412" />
      <stop
         offset="1"
         stop-color="#f05227"
         id="stop413" />
    </linearGradient>
    <path
       id="a"
       d="m 1344.3,1505.7 c 4.9,30.9 26.5,39.9 26.5,39.9 -14.6,-33.9 -18.5,-109.7 -18.5,-109.7 h -180 c 0,0 -4,75.8 -18.5,109.7 0,0 21.6,-9 26.4,-39.9 0,0 4.3,62.5 -26.4,90.3 a 27,27 0 0 0 15.9,-4.4 c 15.3,-9.9 19.8,-32.1 20.5,-35.8 a 200,200 0 0 1 -1.2,42 181,181 0 0 1 -12,44.9 52,52 0 0 0 19,-14.7 c 20.6,-24.8 19.8,-63.5 19.6,-70 2.4,6.2 5,14.1 6.9,23.5 a 163,163 0 0 1 3,39.3 47,47 0 0 0 17.3,-21.6 81,81 0 0 0 2.5,-49.5 68,68 0 0 1 16.7,38.4 l 0.3,2.4 a 78,78 0 0 1 1.8,-10.7 69,69 0 0 1 15.1,-30 81,81 0 0 0 2.5,49.4 48,48 0 0 0 17.2,21.6 163,163 0 0 1 10,-62.8 c -0.2,6.5 -1,45.2 19.7,70 6.5,8 13.5,12.2 19,14.7 a 174,174 0 0 1 -12,-45 201,201 0 0 1 -1.3,-42 c 0.7,3.8 5.2,26 20.5,35.9 a 27,27 0 0 0 16,4.4 c -30.8,-27.8 -26.5,-90.3 -26.5,-90.3" />
    <path
       id="b"
       d="m 1192.1,1520.9 2.6,34.2 a 207,207 0 0 1 -7.9,74.4 q 3.3,-2.9 6.1,-6.3 c 18,-21.6 18.4,-55.1 18,-64.9 l -0.8,-27.7 9.5,24.4 q 4.6,12 7.2,24.8 a 170,170 0 0 1 3.4,29.7 c 3,-3.2 6.2,-7.6 8.6,-13.5 8.2,-19.3 3.3,-40 2.2,-44 l -6,-21.9 13.1,14.7 a 74,74 0 0 1 14.1,24.5 c 4,-11.6 9.7,-19.6 14.1,-24.5 l 13.1,-14.7 -6,22 a 73,73 0 0 0 2.2,44 46,46 0 0 0 8.6,13.4 169,169 0 0 1 10.7,-54.5 l 9.4,-24.4 -0.8,27.7 c -0.3,9.8 0,43.3 18,65 q 3,3.3 6.1,6.2 -4.5,-14.7 -6.6,-30.5 -3,-21.8 -1.3,-43.9 l 2.7,-34.2 6.3,33.3 c 1,5.1 5,22 16.4,30.5 q -9.9,-17.4 -13.6,-43 c -2.9,-19.8 -1.8,-35.9 -1.8,-36.6 l 2.8,-40.3 6.2,39.6 c 2,12.5 7.1,21 12,26.4 a 528,528 0 0 1 -12.7,-88.5 h -171.6 c -1,15.5 -4.5,57.6 -12.7,88.5 5,-5.4 10,-13.9 12,-26.4 l 6.2,-39.6 2.8,40.3 c 0,0.7 1.1,16.8 -1.7,36.6 q -3.8,25.6 -13.7,43 c 11.5,-8.5 15.5,-25.4 16.4,-30.5 z m 165.3,133 -11.3,-5 a 57,57 0 0 1 -20.6,-16 99,99 0 0 1 -19.4,-47.8 q -3.3,17.3 -2.6,35.4 l 0.4,10.8 -7,-4.6 a 53,53 0 0 1 -19.2,-24.2 79,79 0 0 1 -5.8,-31.3 68,68 0 0 0 -4.8,17.8 v 0.3 l -0.3,2.2 -4.4,43.6 -4.7,-43.5 q 0,-1.2 -0.3,-2.3 v -0.5 a 74,74 0 0 0 -4.8,-17.6 80,80 0 0 1 -5.9,31.3 53,53 0 0 1 -19.2,24.2 l -7,4.6 0.5,-10.8 q 0.7,-18.2 -2.6,-35.4 a 99,99 0 0 1 -19.5,47.8 57,57 0 0 1 -20.6,16 l -11.3,5 6,-14.4 a 173,173 0 0 0 12.9,-58 c -3.4,6.1 -8,12 -14.3,16 a 31,31 0 0 1 -18,5 l -14.7,-0.6 12.3,-11.2 c 15.4,-14 21.3,-37.9 23.4,-56.7 -8.5,13 -19,17.5 -19.6,17.8 l -11.3,4.7 6,-14.1 c 14,-32.2 17.9,-106.2 18,-107 l 0.2,-5.8 h 188.6 l 0.3,5.9 c 0,0.7 4,74.7 17.9,106.9 l 6,14 -11.3,-4.6 c -0.6,-0.3 -11,-4.8 -19.6,-17.8 2.2,18.8 8,42.8 23.4,56.7 l 12.4,11.2 -14.7,0.5 q -9.7,0.4 -18,-5 a 45,45 0 0 1 -14.3,-15.8 q 0.3,7.5 1.4,15 3.1,22.8 11.5,43 z" />
    <path
       id="c"
       d="m 872.4,1505.6 c 4.8,30.9 26.4,39.9 26.4,39.9 -14.5,-33.9 -18.4,-109.7 -18.4,-109.7 h -180 c 0,0 -4,75.8 -18.6,109.7 0,0 21.6,-9 26.5,-39.9 0,0 4.3,62.5 -26.5,90.3 a 27,27 0 0 0 16,-4.4 c 15.3,-9.9 19.8,-32.1 20.5,-35.8 0.8,10.3 1,25 -1.2,41.9 a 181,181 0 0 1 -12,45 52,52 0 0 0 19,-14.7 c 20.5,-24.8 19.8,-63.6 19.6,-70 a 159,159 0 0 1 9.9,62.9 48,48 0 0 0 17.4,-21.8 81,81 0 0 0 2.5,-49.5 68,68 0 0 1 16.5,38.5 q 0.3,1.2 0.3,2.5 l 0.3,-2.5 a 81,81 0 0 0 19.1,11.1 48,48 0 0 0 17.3,21.7 163,163 0 0 1 10,-62.9 c -0.2,6.4 -1,45.2 19.7,70 6.5,8 13.5,12.2 19,14.7 -4.1,-9.8 -9.4,-25.1 -12.1,-45 -2.3,-17 -2,-31.6 -1.2,-42 0.7,3.8 5.2,26 20.5,35.9 a 27,27 0 0 0 16,4.4 c -30.8,-27.8 -26.5,-90.3 -26.5,-90.3" />
    <path
       id="d"
       d="m 720.2,1520.7 2.6,34.2 a 207,207 0 0 1 -7.9,74.4 52,52 0 0 0 6.1,-6.3 c 18,-21.6 18.4,-55.1 18,-64.9 l -0.8,-27.7 9.5,24.4 a 155,155 0 0 1 10.6,54.5 c 3,-3.2 6.2,-7.6 8.7,-13.5 8.1,-19.3 3.2,-40 2,-44 l -5.9,-21.9 13.1,14.7 c 4.4,5 10,13 14.1,24.5 4,-11.6 9.7,-19.6 14.1,-24.5 l 13.1,-14.7 -6,22 c -1,4 -6,24.6 2.2,44 a 45,45 0 0 0 8.6,13.4 169,169 0 0 1 10.7,-54.5 l 9.4,-24.4 -0.8,27.7 c -0.3,9.8 0,43.3 18,65 q 3,3.3 6.2,6.2 -4.5,-14.7 -6.7,-30.5 -3,-21.8 -1.3,-43.9 l 2.7,-34.2 6.3,33.3 c 1,5.1 5,22 16.4,30.6 q -9.9,-17.4 -13.6,-43 c -2.9,-19.9 -1.8,-36 -1.8,-36.7 l 2.8,-40.3 6.2,39.6 c 2,12.5 7.1,21 12,26.4 -8.2,-30.9 -11.6,-73 -12.7,-88.5 H 704.5 a 520,520 0 0 1 -12.7,88.5 c 5,-5.4 10,-13.9 12,-26.4 l 6.3,-39.6 2.7,40.3 c 0,0.7 1.2,16.8 -1.7,36.6 q -3.8,25.6 -13.7,43 c 11.5,-8.5 15.5,-25.4 16.5,-30.5 z m 165.3,133 -11.3,-5 a 57,57 0 0 1 -20.5,-16 99,99 0 0 1 -19.5,-47.8 q -3.3,17.3 -2.6,35.4 l 0.4,10.8 -7,-4.6 a 53,53 0 0 1 -19.2,-24.2 78,78 0 0 1 -5.8,-31.3 70,70 0 0 0 -4.8,17.8 v 0.3 l -0.3,2.2 -4.4,43.6 -4.7,-43.5 q 0,-1.1 -0.3,-2.3 v -0.4 a 76,76 0 0 0 -4.8,-17.7 80,80 0 0 1 -5.9,31.3 53,53 0 0 1 -19.2,24.2 l -7,4.6 0.5,-10.8 q 0.7,-18 -2.6,-35.4 a 99,99 0 0 1 -19.5,47.8 57,57 0 0 1 -20.6,16 l -11.3,5 6,-14.4 a 173,173 0 0 0 12.9,-58 45,45 0 0 1 -14.3,16 30,30 0 0 1 -18,5 l -14.7,-0.6 12.3,-11.2 c 15.4,-14 21.3,-37.8 23.4,-56.7 -8.5,13 -19,17.5 -19.6,17.8 l -11.3,4.7 6.1,-14.1 c 13.8,-32.2 17.8,-106.2 17.8,-106.9 l 0.3,-6 h 188.6 l 0.3,6 c 0,0.7 4,74.7 17.9,106.9 l 6,14 -11.3,-4.6 c -0.6,-0.3 -11,-4.8 -19.6,-17.8 2.2,18.9 8,42.8 23.4,56.7 l 12.4,11.2 -14.7,0.6 q -9.7,0.3 -18,-5 a 45,45 0 0 1 -14.3,-16 186,186 0 0 0 12.9,58 z" />
  </defs>
  <path
     fill="#ed1d23"
     d="M 1444.3,682.7 H 1430 a 13.7,13.7 0 1 1 0,-27.3 h 14.3 c 11.7,0 21.2,-9.6 21.2,-21.3 v -476 a 13.7,13.7 0 1 1 27.4,0 v 476 a 48.6,48.6 0 0 1 -48.6,48.6"
     id="path415" />
  <path
     fill="#2f2c2d"
     d="m 1428,648.8 h -0.7 v 39.4 h 0.7 a 8,8 0 0 0 8,-8 v -23.4 a 8,8 0 0 0 -8,-8"
     id="path416" />
  <path
     fill="#ed1d23"
     d="M 62.9,682.2 H 48.6 A 48.6,48.6 0 0 1 0,633.6 v -476 a 13.7,13.7 0 1 1 27.4,0 v 476 c 0,11.7 9.5,21.2 21.2,21.2 H 63 a 13.7,13.7 0 0 1 0,27.4"
     id="path417" />
  <path
     fill="#2f2c2d"
     d="m 64.4,688.2 h 0.7 v -39.4 h -0.7 a 8,8 0 0 0 -8,8 v 23.4 a 8,8 0 0 0 8,8 M 534,339.2 h -6.7 A 35.5,35.5 0 0 1 491.8,303.7 V 114.3 a 35.5,35.5 0 0 1 35.5,-35.5 h 6.7 a 35.5,35.5 0 0 1 35.5,35.5 V 303.7 A 35.5,35.5 0 0 1 534,339.2 m 430,0 h -6.7 A 35.5,35.5 0 0 1 921.8,303.7 V 114.3 a 35.5,35.5 0 0 1 35.5,-35.5 h 6.7 a 35.5,35.5 0 0 1 35.5,35.5 V 303.7 A 35.5,35.5 0 0 1 964,339.2"
     id="path418" />
  <g
     clip-path="url(#e)"
     id="g421"
     transform="translate(-278.1,-396.6)">
    <g
       clip-path="url(#f)"
       id="g420">
      <g
         clip-path="url(#g)"
         id="g419">
        <path
           fill="url(#h)"
           d="m 1370.8,1435.9 h -217 v 206.8 h 217 z"
           id="path419"
           style="fill:url(#h)" />
      </g>
    </g>
  </g>
  <g
     clip-path="url(#i)"
     id="g424"
     transform="translate(-278.1,-396.6)">
    <g
       clip-path="url(#j)"
       id="g423">
      <g
         clip-path="url(#k)"
         id="g422">
        <path
           fill="url(#l)"
           d="M 1385.6,1429.6 H 1139 v 224.3 h 246.6 z"
           id="path421"
           style="fill:url(#l)" />
      </g>
    </g>
  </g>
  <g
     clip-path="url(#m)"
     id="g427"
     transform="translate(-278.1,-396.6)">
    <g
       clip-path="url(#n)"
       id="g426">
      <g
         clip-path="url(#o)"
         id="g425">
        <path
           fill="url(#p)"
           d="m 898.8,1435.8 h -217 v 206.8 h 217 z"
           id="path424"
           style="fill:url(#p)" />
      </g>
    </g>
  </g>
  <g
     clip-path="url(#q)"
     id="g430"
     transform="translate(-278.1,-396.6)">
    <g
       clip-path="url(#r)"
       id="g429">
      <g
         clip-path="url(#s)"
         id="g428">
        <path
           fill="url(#t)"
           d="M 913.7,1429.4 H 667 v 224.3 h 246.7 z"
           id="path427"
           style="fill:url(#t)" />
      </g>
    </g>
  </g>
  <path
     fill="#2f2c2d"
     d="M 583.3,1106.1 H 440.9 a 76,76 0 0 1 -75.9,-76 v -70.6 h 294.3 v 70.7 c 0,42 -34,75.9 -75.9,75.9 M 119.9,740.3 V 597.8 c 0,-42 34,-75.9 75.9,-75.9 h 70.6 v 294.3 h -70.5 c -42,0 -76,-34 -76,-75.9 M 1374.2,593.4 v 150.1 c 0,42 -34,76 -76,76 h -74.3 V 517.4 h 74.5 c 42,0 75.9,34 75.9,75.9 m -319.5,512.8 H 912.3 c -42,0 -75.9,-34 -75.9,-76 v -70.6 h 294.3 v 70.7 c 0,42 -34,75.9 -75.9,75.9"
     id="path430" />
  <path
     fill="#ed1d23"
     d="m 1128.1,294.3 h -765 a 171,171 0 0 0 -171,171.1 v 260.3 a 317,317 0 0 0 316.8,317 h 473.5 a 317,317 0 0 0 316.9,-317 V 465.4 c 0,-94.5 -76.7,-171.1 -171.2,-171.1"
     id="path431" />
  <path
     fill="#2f2c2d"
     d="m 1051.3,430 h -607 A 115,115 0 0 0 329.5,544.8 v 135.6 a 226,226 0 0 0 226,226 h 384.7 a 226,226 0 0 0 226,-226 V 544.8 c 0,-63.4 -51.5,-114.8 -114.9,-114.8"
     id="path432" />
  <path
     fill="#5fbfed"
     d="m 632.9,668.5 a 99.6,99.6 0 1 1 -199,0 99.6,99.6 0 0 1 199,0 m 428.9,0 a 99.6,99.6 0 1 1 -199.1,0 99.6,99.6 0 0 1 199.1,0"
     id="path433" />
  <path
     fill="#ed1d23"
     d="m 609.9,78.8 a 78.8,78.8 0 1 1 -157.5,0 78.8,78.8 0 0 1 157.6,0 m 431,0 a 78.8,78.8 0 1 1 -157.5,0 78.8,78.8 0 0 1 157.5,0 M 109.8,609.4 c -25.9,0 -46.9,21 -46.9,46.8 v 25.6 c 0,25.9 21,46.8 46.9,46.8 h 10 V 609.4 Z m 1273.9,119.2 c 25.9,0 46.8,-21 46.8,-46.8 v -25.6 c 0,-25.9 -21,-46.8 -46.8,-46.8 h -10 v 119.2 z"
     id="path434" />
</svg>
